<svg
   version="1.1"
   id="svg2049"
   xml:space="preserve"
   width="682.66669"
   height="682.66669"
   viewBox="0 0 682.66669 682.66669"
   xmlns="http://www.w3.org/2000/svg"
   xmlns:svg="http://www.w3.org/2000/svg"><defs
     id="defs2053"><clipPath
       clipPathUnits="userSpaceOnUse"
       id="clipPath2063"><path
         d="M 0,512 H 512 V 0 H 0 Z"
         id="path2061" /></clipPath></defs><g
     id="g2055"
     transform="matrix(1.3333333,0,0,-1.3333333,0,682.66667)"><g
       id="g2057"><g
         id="g2059"
         clip-path="url(#clipPath2063)"><g
           id="g2065"
           transform="translate(243.0557,222.4565)"><path
             d="m 0,0 23.588,257.927 c 1.061,11.606 -8.075,21.616 -19.73,21.616 h -197.342 c -11.655,0 -20.792,-10.01 -19.73,-21.616 l 34.421,-376.384 h 118.479"
             style="fill:none;stroke:#000000;stroke-width:20;stroke-linecap:round;stroke-linejoin:round;stroke-miterlimit:10;stroke-dasharray:none;stroke-opacity:1"
             id="path2067" /></g><g
           id="g2069"
           transform="translate(232.2227,10)"><path
             d="m 0,0 h -143.358 c -13.588,0 -24.602,11.015 -24.602,24.602 V 94 h 118.479"
             style="fill:none;stroke:#000000;stroke-width:20;stroke-linecap:round;stroke-linejoin:round;stroke-miterlimit:10;stroke-dasharray:none;stroke-opacity:1"
             id="path2071" /></g><g
           id="g2073"
           transform="translate(183.8403,10)"><path
             d="m 0,0 h -71.195 v 29.841 c 0,5.611 4.548,10.159 10.159,10.159 h 50.877 C -4.548,40 0,35.452 0,29.841 Z"
             style="fill:none;stroke:#000000;stroke-width:20;stroke-linecap:round;stroke-linejoin:round;stroke-miterlimit:10;stroke-dasharray:none;stroke-opacity:1"
             id="path2075" /></g><g
           id="g2077"
           transform="translate(31.9658,456.4492)"><path
             d="M 0,0 H 232.554"
             style="fill:none;stroke:#000000;stroke-width:20;stroke-linecap:round;stroke-linejoin:round;stroke-miterlimit:10;stroke-dasharray:none;stroke-opacity:1"
             id="path2079" /></g><g
           id="g2081"
           transform="translate(429.4375,10)"><path
             d="m 0,0 h -201.174 c -24.534,0 -44.423,19.889 -44.423,44.423 v 76.7 c 0,11.33 9.184,20.515 20.514,20.515 H 23.908 c 11.33,0 20.515,-9.185 20.515,-20.515 v -76.7 C 44.423,19.889 24.534,0 0,0 Z"
             style="fill:none;stroke:#000000;stroke-width:20;stroke-linecap:round;stroke-linejoin:round;stroke-miterlimit:10;stroke-dasharray:none;stroke-opacity:1"
             id="path2083" /></g><g
           id="g2085"
           transform="translate(283.8506,222.4565)"><path
             d="m 0,0 h -83.104 c -9.337,0 -16.906,-7.569 -16.906,-16.906 v -53.913 h 290.02 v 53.913 C 190.01,-7.569 182.44,0 173.104,0 H 90"
             style="fill:none;stroke:#000000;stroke-width:20;stroke-linecap:round;stroke-linejoin:round;stroke-miterlimit:10;stroke-dasharray:none;stroke-opacity:1"
             id="path2087" /></g><path
           d="m 385.851,102.819 h -114 v -44 h 114 z"
           style="fill:none;stroke:#000000;stroke-width:20;stroke-linecap:round;stroke-linejoin:round;stroke-miterlimit:10;stroke-dasharray:none;stroke-opacity:1"
           id="path2089" /><g
           id="g2091"
           transform="translate(125.6729,269.3354)"><path
             d="m 0,0 v 0 c -11.733,11.733 -12.519,30.501 -1.807,43.174 l 19.885,23.525 c 2.35,2.78 6.634,2.78 8.984,0 L 46.946,43.174 C 57.659,30.501 56.873,11.733 45.139,0 32.674,-12.465 12.465,-12.465 0,0 Z"
             style="fill:none;stroke:#000000;stroke-width:20;stroke-linecap:round;stroke-linejoin:round;stroke-miterlimit:10;stroke-dasharray:none;stroke-opacity:1"
             id="path2093" /></g><g
           id="g2095"
           transform="translate(430.8564,417.8369)"><path
             d="M 0,0 C 19.958,-2.409 37.638,-11.083 51.386,-23.727 39.925,-32.674 31.148,-44.683 26.471,-58.45 c -13.841,-40.741 -54.763,-67.594 -99.153,-62.125 -10.464,1.29 -20.302,4.278 -29.279,8.65 -2.161,9.853 -2.725,20.222 -1.488,30.8 C -97.518,-30.343 -51.117,6.17 0,0 Z"
             style="fill:none;stroke:#000000;stroke-width:20;stroke-linecap:round;stroke-linejoin:round;stroke-miterlimit:10;stroke-dasharray:none;stroke-opacity:1"
             id="path2097" /></g><g
           id="g2099"
           transform="translate(321.2129,274.731)"><path
             d="M 0,0 C 3.452,29.201 20.161,56.463 47.584,72.296"
             style="fill:none;stroke:#000000;stroke-width:20;stroke-linecap:round;stroke-linejoin:round;stroke-miterlimit:10;stroke-dasharray:none;stroke-opacity:1"
             id="path2101" /></g><g
           id="g2103"
           transform="translate(328.8506,222.4565)"><path
             d="M 0,0 V 0"
             style="fill:none;stroke:#000000;stroke-width:20;stroke-linecap:round;stroke-linejoin:round;stroke-miterlimit:10;stroke-dasharray:none;stroke-opacity:1"
             id="path2105" /></g></g></g></g></svg>
